<svg xmlns="http://www.w3.org/2000/svg" viewBox="0 0 673.26 391.85"><defs><style>.cls-1{isolation:isolate;}.cls-2{fill:#ebf7fe;}.cls-3{fill:#1f3669;}.cls-4{fill:#f3fafe;}.cls-5{fill:#cbecfc;}.cls-6{fill:#4374b9;}.cls-7{fill:#43bbec;}.cls-8{fill:#f5fbfe;}.cls-9{fill:#0489a8;}.cls-10{fill:#00a6d8;}.cls-11{fill:#e4eaf7;}.cls-12{fill:#f5bc18;}.cls-13{fill:#cbd1e1;}.cls-14{fill:#214081;}.cls-15{fill:#fff;}.cls-16{fill:#acd480;}.cls-17{fill:#fdc88b;}.cls-18{fill:#fbb065;}.cls-19{fill:#5d53a3;}.cls-20{fill:#52c9f2;}.cls-21{fill:#4b93cf;}.cls-22{fill:#95cc70;}.cls-23{fill:#4075bb;}.cls-24{fill:#fedc4f;}.cls-25{fill:#2a437c;}.cls-26{fill:#f15e75;}.cls-27{fill:#795ea8;}.cls-28{fill:#d7c9e3;}.cls-29{opacity:0.1;mix-blend-mode:multiply;}.cls-30{fill:#010101;}.cls-31{fill:#4888c8;}.cls-32{fill:#3963ae;}.cls-33{fill:#6caadc;}.cls-34{fill:#efcb17;}.cls-35{fill:#99daf4;}.cls-36{fill:#7f6fb2;}.cls-37{fill:#6b58a6;}.cls-38{fill:#a293c7;}</style></defs><g class="cls-1"><g id="Layer_1" data-name="Layer 1"><ellipse class="cls-2" cx="336.63" cy="344.53" rx="336.63" ry="47.31"/><polygon class="cls-3" points="240.6 336.22 313.41 336.22 303.94 293.08 250.07 293.08 240.6 336.22"/><path class="cls-3" d="M135.76,108.82H418.25a0,0,0,0,1,0,0v140.1a36.87,36.87,0,0,1-36.87,36.87H172.62a36.87,36.87,0,0,1-36.87-36.87V108.82A0,0,0,0,1,135.76,108.82Z" transform="translate(554 394.6) rotate(180)"/><rect class="cls-4" x="149.62" y="123.1" width="254.76" height="152.21"/><rect class="cls-5" x="178.29" y="204.58" width="69.61" height="54.75" transform="translate(426.19 463.91) rotate(180)"/><rect class="cls-5" x="259.48" y="204.58" width="84.29" height="23.83" transform="translate(603.24 432.99) rotate(180)"/><rect class="cls-5" x="259.48" y="234.75" width="84.29" height="23.83" transform="translate(603.24 493.34) rotate(180)"/><rect class="cls-5" x="178.29" y="145.51" width="197.43" height="27.62" transform="translate(554 318.64) rotate(180)"/><rect class="cls-5" x="178.29" y="182.06" width="197.43" height="11.38" transform="translate(554 375.5) rotate(180)"/><path class="cls-6" d="M418.25,285.78v15.58A13.6,13.6,0,0,1,404.66,315H149.34a13.59,13.59,0,0,1-13.58-13.59V285.78Z"/><path class="cls-6" d="M207.81,344.53H346.2a12.33,12.33,0,0,0-12.33-12.32H220.13a12.33,12.33,0,0,0-12.32,12.32Z"/><circle class="cls-7" cx="277" cy="300.36" r="5.19"/><path class="cls-3" d="M385.81,35.71,522.42,81.9c0,222.35-136.61,262.63-136.61,262.63S249.2,304.25,249.2,81.9Z"/><path class="cls-8" d="M385.78,331.93c9.06-3.58,35-15.63,60.55-44.44,18.55-20.89,33.34-46.43,44-75.91,12.64-35,19.41-75.76,20.16-121.18L385.81,48.25,261.15,90.4c.75,45.89,7.66,87,20.55,122.26,10.81,29.57,25.82,55.13,44.63,76C351.78,316.86,376.87,328.45,385.78,331.93Z"/><path class="cls-9" d="M385.76,325.51c10.61-4.5,33.35-16.32,56.12-42,18.05-20.32,32.46-45.21,42.84-74,12-33.28,18.64-71.93,19.72-114.94L385.81,54.52,267.18,94.63c1.09,43.47,7.85,82.47,20.1,116,10.54,28.85,25.16,53.76,43.46,74C353.38,309.77,375.46,321.17,385.76,325.51Z"/><path class="cls-10" d="M385.76,325.51c-10.3-4.34-32.38-15.74-55-40.85-18.3-20.28-32.92-45.19-43.46-74-12.25-33.52-19-72.52-20.1-116L385.81,54.52v271Z"/><path class="cls-8" d="M362.42,225.49l-43.38-35a10.34,10.34,0,0,1-1.55-14.53h0A10.34,10.34,0,0,1,332,174.39l28.46,23a10.33,10.33,0,0,0,14-1l52.85-56.27a10.33,10.33,0,0,1,14.6-.46h0a10.34,10.34,0,0,1,.46,14.61l-66,70.24A10.33,10.33,0,0,1,362.42,225.49Z"/><path class="cls-5" d="M529.47,245.42H615.1V198.11a28.41,28.41,0,0,0-28.38-28.38H557.85a28.41,28.41,0,0,0-28.38,28.38ZM598.67,229H545.9V198.11a12,12,0,0,1,12-11.94h28.87a12,12,0,0,1,11.95,11.94Z"/><path class="cls-7" d="M557.85,181.93h28.87a12,12,0,0,1,11.95,11.94v4.24a12,12,0,0,0-11.95-11.94H557.85a12,12,0,0,0-12,11.94v-4.24A12,12,0,0,1,557.85,181.93Z"/><rect class="cls-11" x="529.47" y="241.18" width="85.63" height="4.23"/><rect class="cls-12" x="504.71" y="212.9" width="135.14" height="131.64" rx="28.79" transform="translate(1144.57 557.43) rotate(180)"/><path class="cls-3" d="M562.29,271.36a10,10,0,1,1,13.76,9.25V292.3a3.77,3.77,0,1,1-7.53,0V280.61A10,10,0,0,1,562.29,271.36Z"/><rect class="cls-13" x="519.38" y="253.33" width="17.43" height="13.54" transform="translate(1056.18 520.2) rotate(180)"/><rect class="cls-14" x="529.19" y="258.18" width="2.76" height="3.83"/><rect class="cls-14" x="524.24" y="258.18" width="2.76" height="3.83"/><rect class="cls-15" x="512.22" y="266.87" width="31.74" height="77.67" rx="14.52" transform="translate(1056.18 611.4) rotate(180)"/><rect class="cls-16" x="518.07" y="286.6" width="20.04" height="49.12" rx="7.46" transform="translate(1056.18 622.32) rotate(180)"/><path class="cls-17" d="M473.38,241.85c-3.75-2.92-2.37-22.52-2.37-22.52s-1.69-5.9-.76-7.78,2.1-2.32,3.39-2.31,3,.51,3.71,1.69a5.75,5.75,0,0,1,.58,4c-.58,2.92-1.94,4.07-1.94,4.82,0,1.79,5.58,18.45,6.17,18.55C482.16,238.27,477.13,244.76,473.38,241.85Z"/><path class="cls-7" d="M498,221.73c3.25-.58,10,.15,7.55,7.07-3,8.39-24.47,13.27-24.47,13.27h0a16.31,16.31,0,0,1-5.62.53,3.35,3.35,0,0,1-1.76-.52l-.07,0a2,2,0,0,1-1.06-1.22c-2.74-5.12-1.93-21.53-1.93-21.53l5.7.45c0,1.11,2,7.9,3.65,12.94C480,232.69,494.76,222.31,498,221.73Z"/><path class="cls-3" d="M513.79,335.83l2.53,4.89c-1.08,1.35-11.74,5.72-12.3,5.56s5.1-7.19,5.1-7.19Z"/><path class="cls-3" d="M497,340.46l.15,5.83H483.67c-.44-.39,7.54-5.83,7.54-5.83Z"/><path class="cls-14" d="M494.31,300.62l.05-.33v-.16h0L497.44,279l-8.61-17.35,26.93.5c4.68,10,.26,17-3.53,25.88-2.89,6.78-3.48,9.92-3.59,11h0s1.78,4.52-1.46,14S497,340.46,497,340.46h-5.82l3.12-39.84Z"/><path class="cls-3" d="M480.56,286.49c2.06-9.4,8.27-24.82,8.27-24.82l9.56,18.81-6.14,20.2c1.56.92,5,3.51,8.61,9.9,4.93,8.69,12.93,25.25,12.93,25.25l-4.67,3.26-25.14-27a15.48,15.48,0,0,1-3.44-5.85A44.55,44.55,0,0,1,480.56,286.49Z"/><path class="cls-7" d="M506.41,219.28s10.28-3.17,14.33,2-5.14,25.26-5.14,25.26l.65,16.77a46.87,46.87,0,0,1-13.95,1.53,58.12,58.12,0,0,1-13.93-2.64s1-21.16,3.28-30.76c1.55-6.47,4.43-8.53,6.4-10C501.43,218.89,506.41,219.28,506.41,219.28Z"/><path class="cls-17" d="M535.79,250.53c-2.61,4-23.92,4.18-23.92,4.18s-4.05,1.5-6,.72-2.55-1.81-2.64-3.1.2-2.51,1.48-3a8.39,8.39,0,0,1,3.18-.12l-.91,0s-.27-1.43,1.55-1.4c3.22.07,4.26,1.53,5,1.48,1.79-.13,18-6.65,18-7.25C531.54,242.06,538.41,246.56,535.79,250.53Z"/><path class="cls-14" d="M508.89,216.05s1.48.38,4.29-1.84c2.2-1.73,4.19-4,4.4-6.49s-.6-3.44-.6-3.44a4.62,4.62,0,0,0-1.93-5.38c-4.95-3.56-9.49.61-14.68-.2-6-.93.69,6,.69,6Z"/><path class="cls-17" d="M509.26,214.49s2.29,4.53,2.21,4.73a4,4,0,0,1-3.32,1.75,10.62,10.62,0,0,1-5-.7,8.44,8.44,0,0,0,1.1-2.31,13.7,13.7,0,0,0-1.1-2.75Z"/><path class="cls-18" d="M504.25,218a13.7,13.7,0,0,0-1.1-2.75l6.11-.72s.39.76.84,1.68a5.2,5.2,0,0,1-4.74,2.28,5,5,0,0,1-1.14-.29A1.62,1.62,0,0,0,504.25,218Z"/><path class="cls-17" d="M501.78,203.44s-1.06.73-1.42,5,.73,8.32,4.7,8.88,6.1-4.51,6.1-4.51a2.93,2.93,0,0,0,2.22-.36,2.51,2.51,0,0,0,.9-3A1.64,1.64,0,0,0,512,209c-1,.63-1.2,1.93-1.56,2.49s-.53.7-.53.3.1-2.06-.37-2.59-4.37-2.22-5.86-4.17S501.78,203.44,501.78,203.44Z"/><rect class="cls-8" x="459.48" y="199.06" width="10.89" height="20.36" transform="translate(125.79 589.93) rotate(-72.53)"/><path class="cls-3" d="M465.82,212.45l4-1.77a.81.81,0,0,0,.41-1.06h0a.81.81,0,0,0-1.07-.42l-2.62,1.16a.8.8,0,0,1-1-.35l-2.86-5.34a.81.81,0,0,0-1.09-.33h0a.82.82,0,0,0-.33,1.1l3.56,6.65A.8.8,0,0,0,465.82,212.45Z"/><path class="cls-17" d="M476.64,210.16s-2.57-1.83-3.55-.78,2,3.48,2,3.48Z"/><path class="cls-7" d="M513.79,227.56c-.83-3.2-.64-10,6.45-8.08,8.6,2.29,15.17,23.33,15.17,23.33h0a16.68,16.68,0,0,1,1,5.56,3.47,3.47,0,0,1-.38,1.8l0,.07a2,2,0,0,1-1.12,1.15c-4.9,3.13-21.32,3.62-21.32,3.62v-5.71c1.1-.08,7.72-2.6,12.61-4.66C526.14,244.65,514.62,230.76,513.79,227.56Z"/><path class="cls-17" d="M94.59,305.37c-2.93,3.26-22.39.48-22.39.48s-3.89.8-5.56-.17-2.07-2-2-3.2.54-2.26,1.77-2.52a7.51,7.51,0,0,1,2.92.33l-.84-.11s0-1.34,1.61-1.06c2.93.51,3.67,2,4.35,2,1.65.14,17.28-3.56,17.42-4.1C91.89,297.06,97.52,302.12,94.59,305.37Z"/><path class="cls-19" d="M108,287.38s0,0,0-.06a4.79,4.79,0,0,0-5.73-3.08c-2.68.92-7.18,8.31-7.18,8.31h0c-1.78,2.5-2.93,4.36-3.22,4.51l-.07.07c-1.11.69-15.91,3.72-17.5,3.59l-1.16,5.67s15.55,1.88,20.39-.32c2.87-1.17,6.43-4.67,9.43-8.56h0a27.51,27.51,0,0,0,4.72-7.42l0,0,0-.08c.09-.22.16-.44.22-.64l0-.1s0,0,0,0a3.46,3.46,0,0,0,.11-.52.37.37,0,0,0,0-.11,2.75,2.75,0,0,0,0-1.05C108.07,287.46,108.05,287.42,108,287.38Z"/><path class="cls-14" d="M51.54,302.29H71.41a1,1,0,0,0,.91-1.25l-4.89-15.53a1,1,0,0,0-.92-.68H47.31a1,1,0,0,0-.93,1.22l4.23,15.53A1,1,0,0,0,51.54,302.29Z"/><polygon class="cls-20" points="52 301.07 70.85 301.07 66.12 286.06 47.92 286.06 52 301.07"/><polygon class="cls-14" points="51.57 302.29 80.73 302.29 79.88 300.56 50.8 300.56 51.57 302.29"/><path class="cls-3" d="M73.65,303.76l28.24,11.62-.11,2,4.16,8.94s.33,12-9,9.78c-6.89-1.67-14.62-10.23-17.64-12.94-5.69-5.1-8.23-6.28-8.85-6.52a32.3,32.3,0,0,1-5.93,4.63c-7.8,4.88-21.28,15.11-21.28,15.11l-7-2.41,26.61-29.4C66,301.22,73.65,303.76,73.65,303.76Z"/><path class="cls-17" d="M91.12,270.2s-2.47,9.59,1.44,11.15c3,1.22,6.65-2,6.65-2S95.91,268.73,91.12,270.2Z"/><path class="cls-18" d="M93.23,281.55c1.45-1.26,1.44-4.1,1.44-4.1s2.66-2.06,3.9.15c.15.38.28.71.38,1l.06.23a2.22,2.22,0,0,1,0,.67C98.38,280,95.73,282,93.23,281.55Z"/><path class="cls-17" d="M100.53,277.77s2.34,5.88,2.4,7.27a5.24,5.24,0,0,1-3.87,1.14c-3.56-.22-3.57-1-3.57-1s.22-2.07.26-4.44a7.69,7.69,0,0,0-.26-2.62Z"/><path class="cls-14" d="M96.1,279.38a8,8,0,0,0,10.52-8.78c-.67-3.6-2.4-3.86-2.4-3.86s-1.29-6.59-9.44-4.4c-5.69,1.54-7.33,7.42-3.31,11.59S96.1,279.38,96.1,279.38Z"/><path class="cls-14" d="M94.11,274.32s-.53,3.31-.93,3.45,0-4.51,0-4.51Z"/><path class="cls-17" d="M93.71,276.34s.23-1.65,1.36-1.09.4,1.9-.4,2.2S93.71,276.34,93.71,276.34Z"/><path class="cls-14" d="M60.15,328.26v0l.22,0,.23,0v0l40.27-5.12.1,1,11-1s4.18,20.74-15.75,21.45c-3.7.13-6.29-.27-8-1-4.07-.94-8.21-2.4-12.1-2.82-6.76-.72-9-.38-10.7-.19v0s-3.5,2.78-12.7,2.47-26.91-1.6-26.91-1.6l-1.57-5.14Z"/><path class="cls-14" d="M27.47,341.39,26,336.22a36.14,36.14,0,0,0-3.56-3.38,38.64,38.64,0,0,0-3.34-2.37l2.92,12.75S27.1,341.93,27.47,341.39Z"/><path class="cls-7" d="M98.43,284s6.9-2.72,10.43,3.21c1.7,2.85.68,21.84.68,21.84l3.62,21.44s-7.73,6.33-13,1.88c-9.37-8-15.31-7.26-15.31-7.26s2.41-16.46,1.47-28.28c-.48-6.11,2.35-7.35,4-8.93C93.14,285.18,98.43,284,98.43,284Z"/><path class="cls-17" d="M80.69,309c-3.31,2.87-21.49-2.61-21.49-2.61a32.36,32.36,0,0,1-6.3-1.26c-1.78-.76-2.09-1.48-1.85-2.64s1.65-.36,2.91-.34c2.91.05,2.11-.77,2.11-.77a1.91,1.91,0,0,1-1-.78c-.35-.6.55-1.31,2.15-.82,2.84.87,3.4,2.42,4.07,2.56,1.62.34,17.59-1.4,17.79-1.92C79,300.38,84,306.09,80.69,309Z"/><path class="cls-7" d="M96.25,292.76s0-.05,0-.07a4.81,4.81,0,0,0-5.31-3.76c-2.77.58-8.15,7.37-8.15,7.37h0c-2.07,2.26-3.45,4-3.75,4.08l-.08.05c-1.18.55-16.24,1.74-17.8,1.41l-1.85,5.48s15.19,3.79,20.27,2.2c3-.81,7-3.84,10.42-7.33h0a27.66,27.66,0,0,0,5.59-6.78l0,0,0-.07a6.79,6.79,0,0,0,.3-.61.36.36,0,0,0,0-.09s0,0,0,0a4.35,4.35,0,0,0,.17-.51l0-.1a2.63,2.63,0,0,0,.07-1.06A.59.59,0,0,0,96.25,292.76Z"/><rect class="cls-21" x="109.19" y="264.23" width="122.56" height="80.3" transform="translate(340.94 608.77) rotate(180)"/><polygon class="cls-22" points="231.75 264.23 170.47 302.79 109.19 264.23 231.75 264.23"/><polygon class="cls-22" points="231.75 264.23 170.47 225.68 109.19 264.23 231.75 264.23"/><polygon class="cls-15" points="122.53 272.63 170.47 302.79 218.41 272.63 218.41 222.94 122.53 222.94 122.53 272.63"/><rect class="cls-5" x="134.36" y="235.85" width="73.4" height="4.29" transform="translate(342.11 475.98) rotate(180)"/><rect class="cls-5" x="134.36" y="246.73" width="73.4" height="4.29" transform="translate(342.11 497.74) rotate(180)"/><rect class="cls-5" x="134.36" y="257.61" width="73.4" height="4.29" transform="translate(342.11 519.5) rotate(180)"/><rect class="cls-5" x="134.36" y="268.49" width="73.4" height="4.29" transform="translate(342.11 541.26) rotate(180)"/><polygon class="cls-5" points="140.06 283.65 133.24 279.37 207.7 279.37 200.88 283.65 140.06 283.65"/><polygon class="cls-5" points="159.01 295.58 152.19 291.29 188.74 291.29 181.93 295.58 159.01 295.58"/><polygon class="cls-23" points="170.47 302.79 231.75 344.53 109.19 344.53 170.47 302.79"/><path class="cls-24" d="M121.17,205.37l33.32,11.26c0,54.22-33.32,64-33.32,64s-33.31-9.82-33.31-64Z"/><path class="cls-15" d="M121.16,275.24a39.48,39.48,0,0,0,13.33-10.14c9.18-10.47,14.29-25.92,14.87-44.85l-28.19-9.53L93,220.25C94.19,260.73,115.36,272.71,121.16,275.24Z"/><path class="cls-24" d="M121.14,271.3a37.34,37.34,0,0,0,10.68-8.54c8.18-9.33,13-23.12,13.87-40l-24.52-8.29-24.52,8.3C98.41,256.1,114.31,267.8,121.14,271.3Z"/><path class="cls-12" d="M96.65,222.77l24.52-8.3s-.54,27.08-.89,56.37C113.06,266.83,98.34,254.77,96.65,222.77Z"/><path class="cls-17" d="M182.9,66.59s4.42-16.67,12.47-18a1.69,1.69,0,0,1,.64,0,4.07,4.07,0,0,0-1.09.6c-6.17,3.31-4.16,21.71-3.85,24.2-1.17,2.79-2.27,5.33-3,7,5.55.88,15.75,13,15.75,13s-21.45-1-25.2-4.49a8.29,8.29,0,0,1-.82-1.08C175.6,83.64,179,73.88,182.9,66.59Z"/><path class="cls-14" d="M208,42.77a12.78,12.78,0,0,0,4.28-10C212,26.63,209,26.58,209,26.58s-3.23-4.82-10.19-2.44c-8.74,3-3.74,17.11.06,19.24S208,42.77,208,42.77Z"/><polygon class="cls-3" points="219.03 92.06 220.12 95.88 203.85 102.04 203.85 93.46 219.03 92.06"/><polygon class="cls-3" points="188.71 92.06 187.62 95.88 203.89 102.04 203.89 93.46 188.71 92.06"/><path class="cls-3" d="M223.12,93.15c4.31-1.6,9.79-2.09,11.75,3.19s-.63,11.69-15.44,14.52c-10.6,2-34.27,3.83-34.27,3.83L184.08,109S220.24,94.22,223.12,93.15Z"/><path class="cls-14" d="M185.2,108.53a24.84,24.84,0,0,0-8.69,2.11c-4.08,2-4.43,3.62-4.29,3.92.32.72,2.15,1.53,5.54,1.73s9-1.71,9-1.71A7.06,7.06,0,0,1,185.2,108.53Z"/><path class="cls-25" d="M184.54,93.15c-4.31-1.6-9.78-2.09-11.75,3.19s.63,11.69,15.45,14.52c10.6,2,34.27,3.83,34.27,3.83l1.07-5.69S187.43,94.22,184.54,93.15Z"/><path class="cls-14" d="M222.47,108.53a24.81,24.81,0,0,1,8.68,2.11c4.08,2,4.43,3.62,4.3,3.92-.32.72-2.15,1.53-5.54,1.73s-9-1.71-9-1.71A7.08,7.08,0,0,0,222.47,108.53Z"/><path class="cls-15" d="M194.9,49.32c2.48-2.06,14-2.33,17.9,0,7,3.34,3.82,24.48,3.82,24.48A194.93,194.93,0,0,1,220,93.64a40.75,40.75,0,0,1-15.5,3.22l-.67,0-.67,0a40.75,40.75,0,0,1-15.5-3.22,194.93,194.93,0,0,1,3.4-19.84S188.28,52.87,194.9,49.32Z"/><path class="cls-17" d="M201.26,41.69l2.09.09,2.08-.09s2.57,6.56,2.4,6.7a7.18,7.18,0,0,1-4.06,1.68l-.3,0v0h-.24v0l-.31,0a7.18,7.18,0,0,1-4-1.68C198.69,48.25,201.26,41.69,201.26,41.69Z"/><path class="cls-18" d="M203.12,46.81a4.59,4.59,0,0,1-3.34-1.24c.68-1.84,1.48-3.88,1.48-3.88l2.09.09,2.08-.09s.72,1.83,1.37,3.57A4.78,4.78,0,0,1,203.12,46.81Z"/><path class="cls-17" d="M194.06,36.36a1.44,1.44,0,0,1,2.27-.61c1.06.75.31,1.68,1,2.41.53.53-.06-5.36,1.77-5.51,0,0,2.17,2.12,6.71,2.3,2,.08,2.37,2.27,2.37,2.74s.22.71.61,0,.11-1.23,1.17-2a1.44,1.44,0,0,1,2.28.61c.28.71.3,2.85-1,3.68s-1.9.18-1.9.18-2.14,5.69-6.17,5.4c-4,.29-6.17-5.4-6.17-5.4s-.55.64-1.9-.18S193.77,37.07,194.06,36.36Z"/><path class="cls-26" d="M197.89,48.18a11,11,0,0,0-9.19,4.71c-3.44,5.08-6.17,13.27-6.17,13.27s6.27,2.64,8.14,2.93C190.67,69.09,189.09,51.7,197.89,48.18Z"/><path class="cls-17" d="M224.07,66.59s-4.41-16.67-12.47-18a1.69,1.69,0,0,0-.64,0,4.14,4.14,0,0,1,1.1.6c6.17,3.31,4.15,21.71,3.85,24.2,1.16,2.79,2.26,5.33,3,7-5.56.88-15.76,13-15.76,13s21.46-1,25.21-4.49a8,8,0,0,0,.81-1.08C231.38,83.64,228,73.88,224.07,66.59Z"/><path class="cls-26" d="M209,48.1a11,11,0,0,1,9.19,4.71c3.43,5.07,6.16,13.26,6.16,13.26s-6.15,2.73-8,3C216.3,69.09,217.62,51.57,209,48.1Z"/><path class="cls-27" d="M185.32,92a3,3,0,0,0,3.12,2.87H219A3,3,0,0,0,222.1,92V73A3,3,0,0,0,219,70.09H188.44A3,3,0,0,0,185.32,73Z"/><path class="cls-28" d="M201.77,82.1a2.09,2.09,0,1,0,2.08-2.34A2.22,2.22,0,0,0,201.77,82.1Z"/><path class="cls-14" d="M239.48,235.78s0-5.81,1-8,3.89-6.77,7.23-7.71c1.86-.52,3.51-7.86-.65-10.09s-11.07.39-11.07.39-8.14-5.06-13.74,13.08c-4.83,15.64-14.64,22.23-13.74,27.37s1.53,5.74,5.61,4.61S239.48,235.78,239.48,235.78Z"/><path class="cls-17" d="M233.32,269.25c3.47,2.89,22.91-2.78,22.91-2.78s4.1.25,5.66-1,1.82-2.35,1.55-3.55-.88-2.22-2.17-2.32a3.82,3.82,0,0,0-2.1.54s-5.24,1.71-5.93,1.87c-1.66.37-18.16-1.11-18.37-1.65C234.87,260.37,229.85,266.35,233.32,269.25Z"/><path class="cls-7" d="M243.83,244.22c-.12-3.14-1.21-7.59-4.9-7.49-8.45.23-7.38,25.39-7.38,25.39h0a15.69,15.69,0,0,0,.65,5.33A3.15,3.15,0,0,0,233,269l0,.06a1.92,1.92,0,0,0,1.34.74c5.32,1.5,20.39-2.57,20.39-2.57L253.24,262c-1,.23-7.74-.25-12.75-.78C240.49,261.24,244,247.36,243.83,244.22Z"/><path class="cls-3" d="M229.71,270.36c-9.42,10-3.57,18.14-1.57,26.6s1.46,10.31,1.46,10.31-2.26,3.73-.83,12.58,4.83,25.81,4.83,25.81l5.16.89,3.34-36.18,1.06-38.15Z"/><path class="cls-14" d="M228.15,312.41l13.57-38.67-18.34-4.37c-7.87,6-3.58,16.91-4.26,25.58s-1.76,10.26-1.76,10.26-3.29,2.86-4.65,11.72S209.42,343,209.42,343l4.63,2.42Z"/><path class="cls-3" d="M233.6,345.66l5.22.25a35.38,35.38,0,0,1,4,2.65,37.07,37.07,0,0,1,3,2.65H233S233.17,346.14,233.6,345.66Z"/><path class="cls-3" d="M209.7,341.33l4.68,2.3a36.28,36.28,0,0,1,2.6,4,37.83,37.83,0,0,1,1.67,3.63L207,346.19S209.11,341.59,209.7,341.33Z"/><path class="cls-7" d="M242.62,237.74s6,2.78,6.88,9.16a7.63,7.63,0,0,1-4.72,8.39Z"/><path class="cls-7" d="M232.54,231.86a11.3,11.3,0,0,0-10.15,2.8c-4.4,4.31,1,20.63,1,20.63l-4.5,18.46a63.24,63.24,0,0,0,13.61,2.8,65.27,65.27,0,0,0,11.33,0s3.08-23.09,2.09-32.32c-.67-6.23-1.21-4.93-2.23-7C240.77,231.27,232.54,231.86,232.54,231.86Z"/><path class="cls-17" d="M245.58,257.28c-3.16-1.21-6.63,1-7.78,1.81l-.07-.26c-1.6.57-18.16,1-18.43.53,0,0-4.28,6.52-.5,9S239,263.83,239,263.83l-.18-.73c1.16.88,4.64.92,4.9-.08s-2.69.19-1.59-1.36,5,1.14,6,.74S249.43,258.75,245.58,257.28Z"/><path class="cls-20" d="M229.25,240c-.49-3.11-3.23-8.94-8.69-4.6-6.62,5.26-4.35,26.09-4.35,26.09h0a15.71,15.71,0,0,0,1.27,5.21,3.12,3.12,0,0,0,1,1.43l0,.05a1.89,1.89,0,0,0,1.42.58c5.45.87,19.94-4.94,19.94-4.94l-2.17-5c-1,.36-7.71.66-12.75.73C225,259.56,229.74,243.09,229.25,240Z"/><polygon class="cls-21" points="260.78 250.21 247.08 265.66 260.56 265.66 275.08 249.98 260.78 250.21"/><path class="cls-17" d="M263.48,262.13s-1.15-2.07-3-1.55.56,4.52.56,4.52S263.46,264.2,263.48,262.13Z"/><path class="cls-17" d="M237.44,226.74l-.69,8.28s-5.4.65-7-1.7,3.3-7.51,3.3-7.51Z"/><path class="cls-18" d="M232.2,227.29a10.89,10.89,0,0,0,5,3l.29-3.55-2.86-3.46Z"/><path class="cls-17" d="M244.1,216.74s1.42,11.29-3.26,12.5c-3.66.95-7.77-3.43-7.77-3.43S238.85,214.38,244.1,216.74Z"/><path class="cls-17" d="M237.43,221.74a2.12,2.12,0,1,1-1.86-2.2A2,2,0,0,1,237.43,221.74Z"/><path class="cls-14" d="M233.07,225.81s-4.77,7.45-3.55,11.19-1.57,1.92-4.7.43-7.72.9-9.7,5,1.83-8.75,7.8-11.39A86.64,86.64,0,0,0,233.07,225.81Z"/><path class="cls-8" d="M58.7,288.84l4.58,1.42c2,6.79-1.87,8-1.87,8s-4.53-1.23-6.48-8Z"/><g class="cls-29"><rect class="cls-30" x="545.3" y="64.9" width="68.29" height="91.42" rx="4.03"/><rect class="cls-30" x="552.24" y="73.24" width="54.4" height="72.06" rx="4.03"/><path class="cls-30" d="M581.1,69.52a1.67,1.67,0,1,1-1.66-1.66A1.66,1.66,0,0,1,581.1,69.52Z"/><path class="cls-30" d="M583.13,150.85a3.69,3.69,0,1,1-3.69-3.69A3.7,3.7,0,0,1,583.13,150.85Z"/><path class="cls-30" d="M592.06,108.49H566.92a3.57,3.57,0,0,0-3.56,3.55v21.12a3.57,3.57,0,0,0,3.56,3.55h25.14a3.57,3.57,0,0,0,3.56-3.55V112A3.57,3.57,0,0,0,592.06,108.49Z"/><path class="cls-30" d="M590.35,108.49l-3.13,0V98A6.27,6.27,0,0,0,581,91.71h-3A6.27,6.27,0,0,0,571.66,98v10.49h-3.14V98a9.42,9.42,0,0,1,9.41-9.41h3c5.19,0,9.4,4.22,9.4,10.48Z"/><path class="cls-30" d="M585.44,128.24l-3.85-6.68a4.52,4.52,0,1,0-4.2,0l-3.86,6.68c-.43.74-.08,1.34.78,1.34h10.36C585.52,129.58,585.87,129,585.44,128.24Z"/></g><rect class="cls-31" x="540.3" y="59.9" width="68.29" height="91.42" rx="4.03"/><rect class="cls-32" x="547.24" y="68.24" width="54.4" height="72.06" rx="4.03"/><path class="cls-33" d="M576.1,64.52a1.67,1.67,0,1,1-1.66-1.66A1.66,1.66,0,0,1,576.1,64.52Z"/><path class="cls-33" d="M578.13,145.85a3.69,3.69,0,1,1-3.69-3.69A3.7,3.7,0,0,1,578.13,145.85Z"/><path class="cls-34" d="M587.06,103.49H561.92a3.57,3.57,0,0,0-3.56,3.55v21.12a3.57,3.57,0,0,0,3.56,3.55h25.14a3.57,3.57,0,0,0,3.56-3.55V107A3.57,3.57,0,0,0,587.06,103.49Z"/><path class="cls-34" d="M585.35,103.49l-3.13,0V93A6.27,6.27,0,0,0,576,86.71h-3A6.27,6.27,0,0,0,566.66,93v10.49h-3.14V93a9.42,9.42,0,0,1,9.41-9.41h3c5.19,0,9.4,4.22,9.4,10.48Z"/><path class="cls-32" d="M580.44,123.24l-3.85-6.68a4.52,4.52,0,1,0-4.2,0l-3.86,6.68c-.43.74-.08,1.34.78,1.34h10.36C580.52,124.58,580.87,124,580.44,123.24Z"/><g class="cls-29"><path class="cls-30" d="M555.56,36.81A11.77,11.77,0,0,0,538.11,26.5v-.09a23.51,23.51,0,0,0-46-6.79,17.27,17.27,0,0,0-23.92,16v6.16a11.6,11.6,0,0,0,11.6,11.6H544a11.6,11.6,0,0,0,11.6-11.6Z"/></g><path class="cls-35" d="M552.12,33.9a11.77,11.77,0,0,0-17.45-10.3v-.09a23.51,23.51,0,0,0-46-6.79A17.11,17.11,0,0,0,482,15.39a17.28,17.28,0,0,0-17.28,17.28v6.16a11.6,11.6,0,0,0,11.6,11.6h64.19a11.59,11.59,0,0,0,11.59-11.6Z"/><g class="cls-29"><path class="cls-30" d="M506.47,27.59a6.83,6.83,0,0,0-10.13-6v-.05a13.64,13.64,0,0,0-26.7-3.94,9.91,9.91,0,0,0-3.85-.77,10,10,0,0,0-10,10v3.58a6.73,6.73,0,0,0,6.73,6.73h37.25a6.73,6.73,0,0,0,6.73-6.73Z"/></g><path class="cls-15" d="M503,24.15a6.83,6.83,0,0,0-10.13-6v-.05a13.64,13.64,0,0,0-26.7-3.94,9.91,9.91,0,0,0-3.85-.77,10,10,0,0,0-10,10V27a6.73,6.73,0,0,0,6.73,6.73H496.3A6.73,6.73,0,0,0,503,27Z"/><g class="cls-29"><path class="cls-30" d="M90.84,179.71l.1,9.66c0,3.39,8.94,6,19.9,5.94s19.82-3,19.78-6.35l-.1-9.66"/><path class="cls-30" d="M92.25,177.42a3,3,0,0,0-1.41,2.29c0,3.39,8.94,6,19.9,5.94s19.82-3,19.78-6.35a2.94,2.94,0,0,0-1.3-2.14"/><path class="cls-30" d="M90.69,165.17l.1,9.66c0,3.39,8.94,6.06,19.9,5.94s19.82-3,19.78-6.35l-.1-9.65"/><path class="cls-30" d="M92.1,162.88a3.07,3.07,0,0,0-1.41,2.29c0,3.4,9,6.06,19.9,5.94s19.82-3,19.78-6.34a3,3,0,0,0-1.3-2.15"/><path class="cls-30" d="M90.54,150.93l.1,9.65c0,3.4,9,6.06,19.9,5.95s19.82-3,19.78-6.35l-.09-9.66"/><path class="cls-30" d="M130.23,150.52c0,3.39-8.82,6.24-19.78,6.35s-19.87-2.55-19.91-5.94,8.82-6.24,19.78-6.35S130.19,147.13,130.23,150.52Z"/><path class="cls-30" d="M59.25,194.48l.13,12c0,4.2,11.07,7.5,24.64,7.36s24.53-3.66,24.49-7.86l-.12-12"/><path class="cls-30" d="M61,191.64a3.82,3.82,0,0,0-1.76,2.84c0,4.2,11.08,7.49,24.65,7.35s24.53-3.65,24.49-7.86a3.62,3.62,0,0,0-1.62-2.65"/><path class="cls-30" d="M59.07,176.48l.12,12c.05,4.2,11.08,7.49,24.64,7.36s24.54-3.66,24.49-7.87l-.12-12"/><path class="cls-30" d="M60.82,173.64a3.79,3.79,0,0,0-1.75,2.84c0,4.2,11.08,7.5,24.64,7.36s24.53-3.66,24.49-7.86a3.63,3.63,0,0,0-1.61-2.65"/><path class="cls-30" d="M58.89,158.85l.12,12c.05,4.2,11.08,7.5,24.64,7.36s24.53-3.66,24.49-7.86l-.12-12"/><path class="cls-30" d="M108,158.34c0,4.2-10.92,7.72-24.49,7.86s-24.6-3.15-24.64-7.35,10.92-7.73,24.49-7.86S108,154.14,108,158.34Z"/><path class="cls-30" d="M125.73,187.62A15.66,15.66,0,1,1,110.07,172,15.66,15.66,0,0,1,125.73,187.62Z"/><path class="cls-30" d="M116.8,184.38H104a1.82,1.82,0,0,0-1.81,1.81v10.75a1.82,1.82,0,0,0,1.81,1.81h12.8a1.81,1.81,0,0,0,1.81-1.81V186.19A1.82,1.82,0,0,0,116.8,184.38Z"/><path class="cls-30" d="M115.93,184.38h-1.59V179a3.19,3.19,0,0,0-3.19-3.19h-1.54a3.19,3.19,0,0,0-3.19,3.19v5.35h-1.6V179a4.79,4.79,0,0,1,4.79-4.78h1.54c2.64,0,4.78,2.14,4.78,5.33Z"/><path class="cls-30" d="M113.43,194.44l-2-3.4a2.3,2.3,0,1,0-2.14,0l-2,3.4c-.22.37,0,.68.4.68H113C113.47,195.12,113.65,194.81,113.43,194.44Z"/></g><path class="cls-36" d="M85.84,174.71l.1,9.66c0,3.39,8.94,6,19.9,5.94s19.82-3,19.78-6.35l-.1-9.66"/><path class="cls-37" d="M87.25,172.42a3,3,0,0,0-1.41,2.29c0,3.39,8.94,6,19.9,5.94s19.82-3,19.78-6.35a2.94,2.94,0,0,0-1.3-2.14"/><path class="cls-36" d="M85.69,160.17l.1,9.66c0,3.39,8.94,6.06,19.9,5.94s19.82-3,19.78-6.35l-.1-9.65"/><path class="cls-37" d="M87.1,157.88a3.07,3.07,0,0,0-1.41,2.29c0,3.4,9,6.06,19.9,5.94s19.82-3,19.78-6.34a3,3,0,0,0-1.3-2.15"/><path class="cls-36" d="M85.54,145.93l.1,9.65c0,3.4,9,6.06,19.9,5.95s19.82-3,19.78-6.35l-.09-9.66"/><path class="cls-37" d="M125.23,145.52c0,3.39-8.82,6.24-19.78,6.35s-19.87-2.55-19.91-5.94,8.82-6.24,19.78-6.35S125.19,142.13,125.23,145.52Z"/><path class="cls-38" d="M54.25,189.48l.13,12c0,4.2,11.07,7.5,24.64,7.36s24.53-3.66,24.49-7.86l-.12-12"/><path class="cls-36" d="M56,186.64a3.82,3.82,0,0,0-1.76,2.84c0,4.2,11.08,7.49,24.65,7.35s24.53-3.65,24.49-7.86a3.62,3.62,0,0,0-1.62-2.65"/><path class="cls-38" d="M54.07,171.48l.12,12c.05,4.2,11.08,7.49,24.64,7.36s24.54-3.66,24.49-7.87l-.12-12"/><path class="cls-36" d="M55.82,168.64a3.79,3.79,0,0,0-1.75,2.84c0,4.2,11.08,7.5,24.64,7.36s24.53-3.66,24.49-7.86a3.63,3.63,0,0,0-1.61-2.65"/><path class="cls-38" d="M53.89,153.85l.12,12c.05,4.2,11.08,7.5,24.64,7.36s24.53-3.66,24.49-7.86l-.12-12"/><path class="cls-36" d="M103,153.34c0,4.2-10.92,7.72-24.49,7.86s-24.6-3.15-24.64-7.35,10.92-7.73,24.49-7.86S103,149.14,103,153.34Z"/><path class="cls-37" d="M120.73,182.62A15.66,15.66,0,1,1,105.07,167,15.66,15.66,0,0,1,120.73,182.62Z"/><path class="cls-34" d="M111.8,179.38H99a1.82,1.82,0,0,0-1.81,1.81v10.75A1.82,1.82,0,0,0,99,193.75h12.8a1.81,1.81,0,0,0,1.81-1.81V181.19A1.82,1.82,0,0,0,111.8,179.38Z"/><path class="cls-34" d="M110.93,179.38h-1.59V174a3.19,3.19,0,0,0-3.19-3.19h-1.54a3.19,3.19,0,0,0-3.19,3.19v5.35h-1.6V174a4.79,4.79,0,0,1,4.79-4.78h1.54c2.64,0,4.78,2.14,4.78,5.33Z"/><path class="cls-37" d="M108.43,189.44l-2-3.4a2.3,2.3,0,1,0-2.14,0l-2,3.4c-.22.37,0,.68.4.68H108C108.47,190.12,108.65,189.81,108.43,189.44Z"/></g></g></svg>