<svg class="mx-auto mx-md-0" viewBox="0 0 703 538" fill="none" xmlns="http://www.w3.org/2000/svg">
            <path d="M266.389 24.7603C266.391 24.6751 266.392 24.5906 266.392 24.5069C266.392 10.9721 255.685 0 242.478 0C229.272 0 218.565 10.9721 218.565 24.5069C218.565 24.55 218.566 24.5933 218.566 24.6369V24.6369C218.665 34.3248 215.423 43.7513 209.385 51.3316C201.497 61.2359 197.552 70.3251 197.552 78.5992C197.552 82.3945 198.44 86.6979 200.216 91.5092C204.721 103.719 203.334 117.324 196.457 128.374C189.795 139.079 186.464 148.623 186.464 157.004C186.464 162.392 187.903 168.692 190.781 175.905C195.652 188.114 194.548 201.895 187.795 213.175C179.916 226.337 175.977 237.852 175.977 247.721C175.977 285.361 205.751 315.874 242.478 315.874C279.206 315.874 308.98 285.361 308.98 247.721C308.98 237.852 305.041 226.337 297.161 213.175C290.409 201.895 289.305 188.114 294.176 175.905C297.054 168.692 298.493 162.392 298.493 157.004C298.493 148.537 295.097 138.906 288.306 128.112H288.306C281.378 117.1 279.922 103.508 284.362 91.2797C286.077 86.5545 286.935 82.3277 286.935 78.5992C286.935 70.4284 283.082 61.4331 275.375 51.6131V51.6131C269.373 43.9645 266.198 34.4786 266.389 24.7603Z" fill="#8FD8FC"></path>
            <path d="M242.287 206.021V171.656L266.433 140.139C266.669 139.831 266.611 139.391 266.303 139.156C265.995 138.92 265.555 138.979 265.319 139.286L241.028 170.992C240.935 171.115 240.884 171.264 240.884 171.419V204.19L218.171 174.544C217.936 174.236 217.496 174.178 217.188 174.413C216.88 174.649 216.822 175.089 217.057 175.396L240.884 206.496V209.732C240.884 209.978 241.011 210.195 241.204 210.32V240.783L241.028 241.012C240.935 241.134 240.884 241.284 240.884 241.438V267.027L218.171 237.382C217.936 237.074 217.496 237.016 217.188 237.251C216.88 237.487 216.822 237.927 217.057 238.234L240.884 269.334V279.751C240.884 279.998 241.011 280.215 241.204 280.34V298.711C241.135 298.822 241.097 298.95 241.097 299.082V355.489C241.097 355.876 241.411 356.19 241.799 356.19C242.186 356.19 242.501 355.876 242.501 355.489V308.199C242.568 308.091 242.607 307.964 242.607 307.827V299.258L267.846 273.392C268.117 273.115 268.111 272.671 267.834 272.401C267.556 272.13 267.112 272.136 266.842 272.413L242.607 297.25V269.514C242.607 269.36 242.556 269.21 242.462 269.088L242.287 268.859V245.578C242.48 245.453 242.607 245.236 242.607 244.99V241.258L266.433 210.158C266.669 209.851 266.611 209.411 266.303 209.175C265.995 208.94 265.555 208.998 265.319 209.306L242.607 238.952V206.676C242.607 206.522 242.556 206.372 242.462 206.25L242.287 206.021Z" fill="#0070AD"></path>
            <path d="M113.544 346.34C79.1706 346.34 51.3057 317.783 51.3057 282.556C51.3057 247.33 79.1706 60.7811 113.544 60.7811C147.917 60.7811 175.782 247.33 175.782 282.556C175.782 317.783 147.917 346.34 113.544 346.34Z" fill="#BFEAFF"></path>
            <path d="M113.352 262.687V235.504L137.498 203.986C137.733 203.679 137.675 203.239 137.367 203.003C137.06 202.768 136.619 202.826 136.384 203.134L112.093 234.84C111.999 234.962 111.948 235.112 111.948 235.266V260.856L89.2359 231.21C89.0003 230.902 88.56 230.844 88.2523 231.079C87.9447 231.315 87.8862 231.755 88.1218 232.062L111.948 263.162V273.58C111.948 273.826 112.076 274.043 112.268 274.168V293.497L89.2359 263.434C89.0003 263.126 88.56 263.068 88.2523 263.303C87.9447 263.539 87.8862 263.979 88.1218 264.286L112.268 295.804V324.763C112.199 324.874 112.162 325.002 112.162 325.134V381.541C112.162 381.928 112.476 382.242 112.863 382.242C113.251 382.242 113.565 381.928 113.565 381.541V334.251C113.632 334.143 113.671 334.016 113.671 333.88V325.311L138.911 299.444C139.181 299.167 139.176 298.723 138.898 298.453C138.621 298.183 138.177 298.188 137.906 298.465L113.671 323.302V295.566V263.342C113.671 263.188 113.621 263.038 113.527 262.916L113.352 262.687Z" fill="#0070AD"></path>
            <path d="M621.192 364.676C586.819 364.676 558.954 336.119 558.954 300.893C558.954 265.666 586.819 79.1174 621.192 79.1174C655.565 79.1174 683.43 265.666 683.43 300.893C683.43 336.119 655.565 364.676 621.192 364.676Z" fill="#8FD8FC"></path>
            <path d="M621.001 281.024V253.84L645.147 222.323C645.383 222.016 645.324 221.576 645.017 221.34C644.709 221.105 644.269 221.163 644.033 221.471L619.742 253.177C619.649 253.299 619.598 253.449 619.598 253.603V279.192L596.885 249.546C596.65 249.239 596.209 249.181 595.902 249.416C595.594 249.651 595.536 250.091 595.771 250.399L619.598 281.499V291.916C619.598 292.163 619.725 292.38 619.917 292.505V311.834L596.885 281.771C596.65 281.463 596.209 281.405 595.902 281.64C595.594 281.876 595.536 282.316 595.771 282.623L619.917 314.14V343.1C619.849 343.21 619.811 343.339 619.811 343.471V399.878C619.811 400.265 620.125 400.579 620.513 400.579C620.9 400.579 621.214 400.265 621.214 399.878V352.588C621.282 352.48 621.321 352.353 621.321 352.216V343.647L646.56 317.781C646.831 317.504 646.825 317.06 646.548 316.79C646.27 316.519 645.826 316.525 645.556 316.802L621.321 341.639V313.903V281.679C621.321 281.525 621.27 281.375 621.176 281.253L621.001 281.024Z" fill="#0070AD"></path>
            <path d="M557.95 482.597C536.207 485.65 526.38 398.654 522.949 374.252C519.517 349.849 534.361 327.592 556.103 324.538C577.846 321.484 598.254 338.791 601.686 363.193C605.118 387.596 579.693 479.543 557.95 482.597Z" fill="#BFEAFF"></path>
            <path d="M561.674 495.52V368.081" stroke="#22537F" stroke-width="2.21662" stroke-linecap="round" stroke-linejoin="round"></path>
            <path d="M565.626 501.468C549.302 491.666 592.08 424.533 603.625 405.33C615.171 386.127 637.764 378.506 654.088 388.308C670.412 398.11 674.286 421.623 662.74 440.826C651.194 460.029 581.95 511.27 565.626 501.468Z" fill="#8FD8FC"></path>
            <path d="M566.682 503.802C560.941 491.498 633.719 459.21 654.036 449.742C674.353 440.275 695.478 442.574 701.219 454.878C706.96 467.182 695.144 484.831 674.827 494.299C654.51 503.767 572.423 516.106 566.682 503.802Z" fill="#BFEAFF"></path>
            <path d="M569.625 502.549L648.219 478.406" stroke="#22537F" stroke-width="2.21662" stroke-linecap="round" stroke-linejoin="round"></path>
            <path d="M568.402 497.965L631.4 425.842" stroke="#22537F" stroke-width="2.21662" stroke-linecap="round" stroke-linejoin="round"></path>
            <path d="M567.94 502.741C558.85 512.83 500.672 458.497 484.013 443.507C467.354 428.517 461.217 408.186 470.308 398.097C479.398 388.008 500.272 391.981 516.931 406.972C533.591 421.962 577.031 492.652 567.94 502.741Z" fill="#8FD8FC"></path>
            <path d="M559.345 490.415L519.895 440.601" stroke="#22537F" stroke-width="2.21662" stroke-linecap="round" stroke-linejoin="round"></path>
            <path d="M570.338 502.576C567.994 511.317 509.885 494.74 493.452 490.339C477.018 485.939 465.596 475.285 467.94 466.544C470.283 457.803 485.505 454.284 501.939 458.685C518.373 463.085 572.682 493.835 570.338 502.576Z" fill="#CBEFFC"></path>
            <path d="M569.32 501.938L502.347 479.018" stroke="#22537F" stroke-width="2.21662" stroke-linecap="round" stroke-linejoin="round"></path>
            <path fill-rule="evenodd" clip-rule="evenodd" d="M207.861 383.624C207.856 383.83 207.833 384.035 207.792 384.237C207.409 386.113 205.577 387.324 203.7 386.942C201.236 386.44 199.312 384.512 198.816 382.048L169.568 236.503C169.39 235.619 169.271 234.725 169.211 233.826C168.453 222.493 177.031 212.693 188.371 211.935C189.01 211.893 189.65 211.879 190.29 211.893C202.143 212.162 211.533 221.982 211.264 233.827L207.861 383.624Z" fill="#FFC55F"></path>
            <path d="M181.738 246.059C166.878 251.452 141.77 227.463 149.3 200.399C156.829 173.336 163.498 157.108 156.399 148.704C149.3 140.3 174.968 144.415 174.968 160.542C174.968 176.669 176.922 120.262 196.597 104.98C200.032 123.689 206.371 138.263 215.616 148.704C229.482 164.364 226.575 176.728 220.813 191.656C227.482 192.97 230.428 191.321 229.65 186.711C238.531 195.109 229.888 230.453 209.232 240.174C188.576 249.894 196.597 240.666 181.738 246.059Z" fill="#F95B03"></path>
            <path fill-rule="evenodd" clip-rule="evenodd" d="M211.302 239.093C210.626 239.481 209.936 239.843 209.232 240.174C188.576 249.894 196.597 240.666 181.737 246.059C178.684 247.167 175.199 247.034 171.653 245.89L170.048 235.958C169.969 235.468 169.908 234.975 169.865 234.481C168.879 223.225 177.211 213.303 188.473 212.318C188.862 212.284 189.251 212.261 189.64 212.249C201.131 211.892 210.736 220.911 211.093 232.394L211.302 239.093Z" fill="#EC961F"></path>
            <path d="M183.902 231.69L190.718 218.38C191.833 216.204 195.099 217.875 193.985 220.051L187.169 233.36C186.054 235.537 182.787 233.866 183.902 231.69Z" fill="#1C2229"></path>
            <path d="M190.655 235.06L197.471 221.751C198.585 219.574 201.852 221.245 200.738 223.422L193.922 236.731C192.807 238.907 189.54 237.237 190.655 235.06Z" fill="#1C2229"></path>
            <path d="M198.816 350.829C207.434 345.653 189.937 316.394 186.695 314.983C181.284 312.63 172.927 325.698 171.93 331.989C170.683 339.856 182.958 350.379 189.293 354.38C189.808 354.705 192.638 357.147 193.385 357.024C194.055 356.914 193.251 353.717 194.01 353.38C195.944 352.52 197.387 351.686 198.816 350.829Z" fill="#FFAA83"></path>
            <path fill-rule="evenodd" clip-rule="evenodd" d="M306.21 363.628L299.121 352.314L306.21 363.628Z" stroke="#ED5738" stroke-width="6.64988" stroke-linecap="round" stroke-linejoin="round"></path>
            <path d="M218.896 327.722C240.354 333.384 272.36 342.35 299.113 352.34C287.313 315.122 275.993 264.73 284.101 247.76C295.818 223.235 312.661 232.661 321.54 246.83C330.213 260.672 360.726 364.05 351.208 391.695C354.886 408.333 344.693 416.125 323.259 411.742C308.098 408.641 271.73 390.102 214.157 356.125C211.509 356.66 207.923 354.991 206.417 352.821C206.017 352.244 205.658 351.598 205.334 350.896C199.807 347.607 194.099 344.186 188.209 340.633C187.34 335.97 186.996 332.152 187.175 329.18C187.147 329.169 187.12 329.157 187.092 329.145C177.98 325.134 192.603 308.135 198.257 310.214C202.015 311.595 206.878 310.838 212.933 316.287C215.578 318.666 217.617 322.874 218.896 327.722Z" fill="#FFAA83"></path>
            <path d="M183.378 324.21C184.372 322.652 186.231 320.42 188.936 317.555C189.632 316.818 189.598 315.658 188.861 314.963C188.124 314.268 186.962 314.301 186.267 315.038C183.417 318.057 181.429 320.444 180.284 322.239C179.64 323.249 179.232 324.113 179.07 324.895C178.823 326.093 179.154 327.23 180.191 327.898C183.256 329.871 187.74 330.153 193.597 328.085C195.234 327.508 196.645 326.971 197.838 326.467C197.164 330.099 197.617 333.555 199.215 336.786C200.316 339.011 201.372 340.552 202.48 341.446C203.995 342.669 205.773 342.741 207.199 341.495C207.962 340.829 208.04 339.671 207.374 338.908C206.732 338.175 205.636 338.075 204.874 338.66C204.847 338.641 204.817 338.619 204.785 338.593C204.182 338.106 203.39 336.951 202.505 335.161C200.765 331.642 200.765 327.794 202.555 323.483C203.292 321.708 201.148 320.14 199.678 321.378C198.82 322.1 196.327 323.233 192.375 324.627C188.015 326.166 184.902 326.153 182.833 325.177C182.953 324.919 183.134 324.592 183.378 324.21ZM204.998 338.735C205 338.735 205 338.736 205 338.735C205 338.735 204.999 338.735 204.998 338.735Z" fill="#ED5738"></path>
            <path d="M299.214 217.649C324.145 194.403 484.094 217.532 494.917 238.204C505.74 258.876 474.072 397.333 443.976 415.362C413.88 433.391 343.82 435.285 317.092 402.035C290.365 368.784 274.283 240.894 299.214 217.649Z" fill="#FFAA83"></path>
            <path d="M297.522 331.816C283.171 332.443 270.577 327.069 268.613 313.557C264.8 287.324 271.323 241.573 290.325 222.09C297.151 215.091 303.166 212.462 308.244 212.723C318.636 209.139 334.769 207.739 353.302 207.95C368.414 208.122 336.267 307.503 389.217 313.065C456.252 320.106 426.289 214.806 437.673 217.037C467.357 222.855 490.984 230.692 494.917 238.204C503.806 255.183 484.033 351.611 460.009 395.519C454.782 405.073 475.891 446.767 470.513 449.988C444.272 465.708 427.392 463.073 379.819 464.391C332.245 465.708 304.766 442.344 305.525 433.148C306.748 418.336 309.213 396.372 306.275 377.617C304.789 368.132 301.116 351.255 297.522 331.816Z" fill="#5296FB"></path>
            <path d="M350.421 253.564C350.305 252.151 351.357 250.911 352.771 250.795C354.185 250.679 355.426 251.73 355.542 253.143C358.526 289.458 369.831 308.151 389.164 310.182C402.831 311.617 414.026 305.847 422.197 294.257C429.532 283.852 433.93 269.243 434.518 254.487C434.574 253.071 435.769 251.968 437.187 252.024C438.604 252.081 439.708 253.275 439.651 254.692C439.026 270.382 434.342 285.945 426.397 297.214C417.205 310.252 404.252 316.929 388.626 315.288C366.22 312.934 353.583 292.04 350.421 253.564Z" fill="white"></path>
            <path d="M293.903 326.313C285.402 324.314 276.242 319.413 268.158 312.128C267.406 311.45 267.346 310.29 268.025 309.538C268.703 308.786 269.863 308.726 270.616 309.405C278.525 316.532 286.589 320.962 294.841 322.691C295.544 325.19 296.969 326.313 293.903 326.313Z" fill="white"></path>
            <path d="M298.181 329.068C298.48 330.035 297.937 331.062 296.969 331.36C296.001 331.659 294.973 331.117 294.675 330.149C290.665 317.163 288.994 307.811 289.703 301.947C289.824 300.941 290.738 300.225 291.744 300.346C292.75 300.468 293.467 301.381 293.346 302.387C292.716 307.6 294.314 316.542 298.181 329.068Z" fill="#1D5EF8"></path>
            <path d="M349.267 229.447C342.698 227.366 330.868 216.95 332.745 208.825C334.695 200.384 341.439 194.731 347.807 196.201C348.055 196.258 348.298 196.325 348.538 196.402C348.755 195.031 349.01 193.709 349.302 192.442C356.176 162.69 386.358 144.249 416.715 151.253C447.073 158.257 466.111 188.054 459.238 217.806C452.364 247.558 417.18 296.265 386.822 289.261C366.642 284.605 353.675 256.505 349.267 229.447Z" fill="#FFAA83"></path>
            <path fill-rule="evenodd" clip-rule="evenodd" d="M381.279 194.838L391.605 204.461C392.905 205.672 392.976 207.707 391.764 209.006C390.551 210.305 388.515 210.376 387.215 209.165L376.889 199.542C375.589 198.331 375.518 196.296 376.73 194.997C377.943 193.698 379.979 193.627 381.279 194.838Z" fill="#253238"></path>
            <path fill-rule="evenodd" clip-rule="evenodd" d="M427.396 203.18L440.577 198.123C442.237 197.487 444.098 198.315 444.735 199.973C445.372 201.632 444.543 203.492 442.884 204.128L429.703 209.185C428.044 209.821 426.182 208.993 425.545 207.335C424.908 205.676 425.737 203.816 427.396 203.18Z" fill="#22537F"></path>
            <path d="M409.857 209.945C404.875 221.998 403.972 229.712 407.148 233.085C410.324 236.459 413.372 238.483 416.293 239.156C411.893 242.982 407.88 245.137 404.252 245.621C398.81 246.346 390.366 242.14 395.819 238.915" stroke="#ED5738" stroke-width="6.64988" stroke-linecap="round" stroke-linejoin="round"></path>
            <path d="M345.897 201.997C346.868 201.706 347.891 202.256 348.183 203.226C348.474 204.196 347.924 205.218 346.953 205.51C341.344 207.193 340.351 209.655 343.333 214.227C343.887 215.075 343.648 216.211 342.799 216.764C341.95 217.318 340.813 217.078 340.259 216.23C335.905 209.556 337.997 204.368 345.897 201.997Z" fill="#ED5738"></path>
            <path d="M379.857 257.503C378.844 257.484 378.038 256.648 378.056 255.636C378.075 254.623 378.911 253.818 379.925 253.836C393.055 254.077 402.186 260.706 407.023 273.473C407.381 274.421 406.904 275.479 405.956 275.838C405.008 276.196 403.949 275.719 403.59 274.772C399.278 263.388 391.465 257.716 379.857 257.503Z" fill="#ED5738"></path>
            <path d="M357.876 261.158C357.559 260.196 358.083 259.159 359.045 258.843C360.008 258.526 361.045 259.049 361.362 260.011C366.576 275.839 375.468 285.089 388.11 288.005C400.711 290.912 412.856 285.904 424.713 272.74C425.391 271.987 426.551 271.926 427.304 272.604C428.057 273.281 428.118 274.441 427.44 275.193C414.758 289.274 401.318 294.816 387.285 291.579C373.294 288.351 363.467 278.129 357.876 261.158Z" fill="#ED5738"></path>
            <path d="M373.802 216.227L383.32 214.388L375.513 209.385C374.66 208.838 374.412 207.704 374.959 206.851C375.506 205.999 376.641 205.751 377.494 206.298L389.161 213.774C390.555 214.668 390.145 216.804 388.519 217.118L374.499 219.828C373.504 220.02 372.541 219.37 372.349 218.375C372.156 217.381 372.807 216.419 373.802 216.227Z" fill="#1C2229"></path>
            <path d="M428.848 228.812C430.987 229.306 433.122 227.973 433.616 225.835C434.11 223.697 432.776 221.564 430.637 221.07C428.497 220.577 426.363 221.91 425.869 224.048C425.375 226.186 426.709 228.319 428.848 228.812Z" fill="#1C2229"></path>
            <path fill-rule="evenodd" clip-rule="evenodd" d="M327.38 157.446L319.534 154.232C318.221 153.695 317.593 152.195 318.131 150.883C318.669 149.571 320.169 148.944 321.482 149.481L324.446 150.695L321.944 148.377C320.903 147.413 320.842 145.789 321.807 144.749C322.771 143.71 324.396 143.648 325.437 144.612L329.466 148.345C329.702 147.778 329.96 147.224 330.239 146.685C339.038 129.697 344.783 125.25 361.825 132.625C391.197 65.5754 436.211 73.5046 448.568 108.568C465.898 86.8525 481.736 87.0834 493.414 94.7511L496.207 89.8079C496.904 88.5733 498.471 88.1375 499.707 88.8346C500.942 89.5316 501.378 91.0975 500.681 92.3321L497.536 97.8973C499.875 99.9425 501.995 102.262 503.869 104.7L517.507 95.2773C518.674 94.471 520.274 94.7627 521.081 95.9289C521.888 97.095 521.596 98.6941 520.429 99.5004L506.802 108.916C506.841 108.979 506.881 109.042 506.92 109.106L516.978 105.766C518.325 105.319 519.779 106.047 520.226 107.392C520.673 108.738 519.945 110.191 518.598 110.638L509.472 113.669C510.823 116.383 511.843 119.02 512.497 121.38C557.63 114.476 576.139 151.367 521.151 173.675C525.065 199.556 492.645 207.31 481.038 200.533C480.354 223.145 461.381 235.376 451.453 235.695C453.672 232.155 457.542 221.495 459.126 214.637C455.664 201.963 453.049 198.302 454.305 183.231C444.241 189.918 425.685 191.675 408.59 194.333C400.981 195.516 376.013 192.617 368.396 181.829C365.775 193.173 365.712 205.016 357.749 221.063C351.292 223.184 354.268 202.375 350.347 198.454C345.734 193.838 339.65 199.27 336.584 200.411C334.87 196.077 325.927 174.493 327.38 157.446Z" fill="#253238"></path>
            <path d="M507.543 271.096C508.016 284.285 501.559 354.021 474.654 395.852C468.759 405.018 470.326 409.784 465.935 416.914C448.966 444.468 420.461 449.607 420.461 399.318C420.461 386.657 430.48 375.631 432.65 364.268C440.082 325.365 457.304 265.101 474.654 253.194C497.072 237.809 506.943 254.389 507.543 271.096Z" fill="#FFAA83"></path>
            <path d="M506.816 251.343C507.323 267.732 510.199 294.68 510.281 319.233C510.364 343.786 440.772 362.231 435.41 319.233C430.048 276.234 453.843 233.586 474.188 233.586C494.532 233.586 506.299 234.628 506.816 251.343Z" fill="#5296FB"></path>
            <path d="M506.523 322.69C480.942 343.863 456.468 344.27 433.763 323.808C433.01 323.13 432.951 321.97 433.629 321.218C434.308 320.466 435.468 320.406 436.221 321.085C457.528 340.286 479.961 339.913 504.182 319.865C504.963 319.22 506.12 319.328 506.766 320.108C507.412 320.888 507.304 322.044 506.523 322.69Z" fill="white"></path>
            <path d="M439.903 319.808C442.927 306.559 446.159 297.625 449.707 292.9C450.316 292.09 451.466 291.926 452.276 292.534C453.087 293.142 453.251 294.292 452.642 295.102C449.488 299.301 446.398 307.844 443.48 320.624C443.255 321.611 442.271 322.229 441.283 322.004C440.295 321.779 439.677 320.796 439.903 319.808Z" fill="#1D5EF8"></path>
            <path d="M433.753 365.132V357.605C433.753 356.592 434.574 355.771 435.588 355.771C436.601 355.771 437.422 356.592 437.422 357.605V365.132C437.422 366.145 436.601 366.966 435.588 366.966C434.574 366.966 433.753 366.145 433.753 365.132Z" fill="#ED5738"></path>
            <path d="M465.397 399.938C467.773 393.815 467.777 384.164 465.316 371.06C461.492 356.608 460.753 347.878 463.475 344.207C464.078 343.393 465.227 343.222 466.041 343.825C466.856 344.428 467.027 345.577 466.423 346.39C464.669 348.756 465.363 356.909 468.911 370.316C471.499 384.066 471.499 394.357 468.818 401.264C468.452 402.208 467.389 402.677 466.444 402.311C465.499 401.944 465.03 400.882 465.397 399.938Z" fill="#ED5738"></path>
            <path d="M396.84 347.734C393.919 344.135 394.876 342.743 393.704 338.287C393.3 336.753 395.144 334.323 394.904 332.699C394.726 331.492 392.872 329.749 392.891 328.525C392.923 326.349 394.486 324.203 394.904 321.974C395.271 320.017 392.559 318.432 393.704 315.252C394.849 312.073 398.039 311.727 399.2 310.049C400.124 308.715 395.343 306.748 399.2 302.893C403.058 299.039 414.52 297.592 420.236 300.292C418.489 311.217 428.232 311.837 433.713 308.556C435.097 307.728 434.658 301.012 436.782 301.012C438.567 301.012 443.222 301.012 445.697 302.893C460.261 313.957 464.93 321.857 463.179 344.458C462.304 355.738 430.842 357.733 420.236 355.522C414.124 354.247 401.065 352.939 396.84 347.734Z" fill="#FFAA83"></path>
            <path d="M422.831 289.085L437.787 292.262L432.91 315.889L417.953 312.713L422.831 289.085Z" fill="#1E5B89"></path>
            <path d="M436.901 294.745C464.093 294.745 486.137 272.716 486.137 245.542C486.137 218.368 464.093 196.339 436.901 196.339C409.709 196.339 387.665 218.368 387.665 245.542C387.665 272.716 409.709 294.745 436.901 294.745Z" fill="#4C91FC"></path>
            <path d="M436.901 289.855C461.053 289.855 480.632 270.289 480.632 246.153C480.632 222.017 461.053 202.451 436.901 202.451C412.749 202.451 393.17 222.017 393.17 246.153C393.17 270.289 412.749 289.855 436.901 289.855Z" fill="white"></path>
            <path d="M478.392 232.308C474.789 249.23 463.973 271.193 449.883 287.898C445.782 289.17 441.421 289.855 436.901 289.855C412.749 289.855 393.17 270.289 393.17 246.153C393.17 222.017 412.749 202.451 436.901 202.451C456.211 202.451 472.597 214.958 478.392 232.308V232.308Z" fill="#FFAA83"></path>
            <path d="M437.207 264.184C450.381 264.184 461.06 253.512 461.06 240.347C461.06 227.182 450.381 216.51 437.207 216.51C424.033 216.51 413.354 227.182 413.354 240.347C413.354 253.512 424.033 264.184 437.207 264.184Z" fill="white"></path>
            <path d="M437.818 253.183C444.574 253.183 450.051 247.71 450.051 240.958C450.051 234.207 444.574 228.734 437.818 228.734C431.062 228.734 425.586 234.207 425.586 240.958C425.586 247.71 431.062 253.183 437.818 253.183Z" fill="#22537F"></path>
            <path d="M437.819 247.07C441.197 247.07 443.935 244.334 443.935 240.958C443.935 237.583 441.197 234.846 437.819 234.846C434.441 234.846 431.702 237.583 431.702 240.958C431.702 244.334 434.441 247.07 437.819 247.07Z" fill="#1C2229"></path>
            <path d="M446.075 241.569C449.284 241.569 451.886 238.97 451.886 235.763C451.886 232.556 449.284 229.956 446.075 229.956C442.866 229.956 440.265 232.556 440.265 235.763C440.265 238.97 442.866 241.569 446.075 241.569Z" fill="white"></path>
            <path d="M593.897 518.726C583.444 490.621 568.138 476.569 547.979 476.569C517.74 476.569 532.317 432.322 500.959 432.322C480.545 432.322 480.545 456.95 451.308 441.654C421.164 425.883 452.428 398.68 395.311 393.457C338.194 388.234 351.315 441.654 327.797 441.654C310.858 441.654 309.767 414.741 295.318 412.555C280.869 410.369 278.892 428.224 268.066 425.985C254.876 423.258 259.853 400.612 227.693 400.612C195.532 400.612 206.469 444.358 198.63 449.162C190.79 453.965 180.711 437.923 169.884 456.95C159.058 475.976 177.813 484.93 162.045 484.93C142.832 484.93 132.231 496.195 130.24 518.726C131.655 525.623 144.87 529.482 169.884 530.302C207.406 531.534 209.095 520.955 255.652 522.841C302.209 524.727 310.1 522.841 376.962 522.841C443.825 522.841 431.955 537.845 483.001 533.287C534.047 528.729 573.164 538.154 602.462 536.272C618.509 535.24 615.654 529.392 593.897 518.726Z" fill="#BFEAFF"></path>
            <path d="M144.925 461.337C146.573 464.382 145.468 467.694 142.458 468.736C139.447 469.777 122.17 472.823 120.523 469.779C118.876 466.734 133.482 458.751 136.492 457.71C139.502 456.669 143.278 458.293 144.925 461.337ZM127.095 450.852C128.743 453.897 127.638 457.209 124.627 458.251C121.617 459.292 104.34 462.338 102.693 459.294C101.046 456.249 115.652 448.266 118.662 447.225C121.672 446.184 125.448 447.808 127.095 450.852ZM111.401 439.813C112.568 442.979 110.891 445.984 107.653 446.524C104.416 447.064 86.3243 447.357 85.1565 444.191C83.9887 441.025 100.187 435.599 103.424 435.059C106.662 434.519 110.233 436.647 111.401 439.813ZM94.9291 428.631C95.6462 431.839 93.4934 434.508 90.1207 434.59C86.7481 434.673 68.3062 432.512 67.5891 429.303C66.8721 426.095 84.1513 423.055 87.5239 422.972C90.8966 422.889 94.212 425.422 94.9291 428.631ZM79.921 414.994C80.3488 418.197 77.9199 420.629 74.4959 420.424C71.072 420.22 52.5933 416.542 52.1656 413.339C51.7379 410.136 69.5231 408.62 72.947 408.824C76.3709 409.028 79.4933 411.791 79.921 414.994ZM65.4054 401.913C65.1882 405.019 62.2196 406.867 58.7749 406.04C55.3302 405.213 37.2642 398.314 37.4814 395.207C37.6986 392.101 56.1167 393.963 59.5615 394.79C63.0062 395.618 65.6226 398.806 65.4054 401.913ZM53.5162 388.21C52.437 391.002 48.9115 391.949 45.6419 390.325C42.3722 388.702 25.9318 377.841 27.011 375.049C28.0902 372.257 46.2802 378.592 49.5499 380.215C52.8196 381.839 54.5953 385.418 53.5162 388.21ZM44.1732 371.242C42.4044 373.606 38.5898 373.718 35.6528 371.492C32.7159 369.266 18.5967 355.562 20.3655 353.197C22.1342 350.833 39.1211 360.705 42.058 362.931C44.9949 365.157 45.9419 368.878 44.1732 371.242ZM50.183 366.002C47.5999 365.339 45.6825 362.823 45.9002 360.382C46.118 357.94 49.3652 345.548 51.9483 346.211C54.5314 346.874 55.4721 360.34 55.2544 362.782C55.0366 365.223 52.7661 366.665 50.183 366.002ZM60.4023 383.054C57.8112 382.643 55.6618 380.285 55.6015 377.786C55.5412 375.287 57.3222 362.385 59.9134 362.795C62.5045 363.205 64.9244 376.772 64.9848 379.271C65.0451 381.771 62.9934 383.464 60.4023 383.054ZM71.6344 398.321C69.0427 397.868 66.9303 395.481 66.9164 392.99C66.9025 390.498 68.9297 377.672 71.5215 378.124C74.1132 378.577 76.2881 392.138 76.302 394.629C76.3159 397.121 74.2262 398.773 71.6344 398.321ZM85.6077 413.937C83.0316 413.741 80.7068 411.534 80.4151 409.007C80.1234 406.481 80.6671 393.262 83.2433 393.458C85.8194 393.654 89.4524 407.192 89.7441 409.718C90.0358 412.245 88.1839 414.133 85.6077 413.937ZM100.438 425.67C97.85 425.345 95.6284 423.045 95.4754 420.533C95.3224 418.021 96.6096 404.98 99.1971 405.305C101.785 405.63 104.693 419.198 104.846 421.71C104.999 424.222 103.025 425.995 100.438 425.67ZM113.118 435.049C110.544 434.303 108.709 431.74 109.019 429.324C109.329 426.908 113.058 414.716 115.632 415.462C118.206 416.207 118.651 429.607 118.34 432.024C118.03 434.44 115.692 435.794 113.118 435.049ZM126.172 443.251C123.634 442.303 122.014 439.637 122.553 437.296C123.091 434.956 128.003 423.33 130.541 424.278C133.079 425.226 132.282 438.389 131.743 440.729C131.204 443.07 128.71 444.199 126.172 443.251ZM143.148 454.421C140.562 453.8 138.604 451.308 138.775 448.855C138.947 446.402 141.952 433.915 144.538 434.536C147.125 435.157 148.313 448.651 148.142 451.104C147.97 453.557 145.734 455.042 143.148 454.421Z" fill="#8FD8FC"></path>
            <path d="M173.728 471.269C174.564 471.681 175.015 472.61 174.735 473.343C174.455 474.076 173.549 474.335 172.713 473.922C103.7 439.867 61.0821 403.802 44.9687 365.629C44.6218 364.807 44.998 363.996 45.8091 363.817C46.6202 363.638 47.5589 364.159 47.9058 364.981C63.5899 402.136 105.494 437.598 173.728 471.269Z" fill="#465197"></path>
            <path d="M193.082 459.8C193.631 462.963 191.33 465.444 187.942 465.342C184.554 465.24 166.168 462.136 165.618 458.973C165.069 455.81 182.564 453.786 185.952 453.888C189.34 453.99 192.532 456.637 193.082 459.8ZM178.598 446.255C178.686 449.374 175.973 451.451 172.539 450.895C169.105 450.34 150.849 444.868 150.761 441.75C150.674 438.632 168.787 439.047 172.221 439.603C175.655 440.158 178.51 443.137 178.598 446.255ZM166.077 430.7C165.874 433.76 162.931 435.564 159.502 434.729C156.073 433.895 138.08 426.995 138.282 423.936C138.484 420.876 156.806 422.815 160.235 423.649C163.663 424.484 166.279 427.64 166.077 430.7ZM153.94 415.764C153.108 418.613 149.737 419.77 146.411 418.348C143.086 416.926 126.147 407.084 126.979 404.235C127.811 401.385 146.098 406.607 149.424 408.03C152.75 409.452 154.772 412.915 153.94 415.764ZM141.959 399.248C139.935 401.333 136.085 401.03 133.36 398.57C130.634 396.111 117.84 381.397 119.864 379.312C121.887 377.227 137.962 388.561 140.688 391.02C143.414 393.479 143.983 397.163 141.959 399.248ZM135.696 380.579C132.861 381.673 129.108 380.072 127.312 377.004C125.517 373.936 118.307 356.804 121.142 355.71C123.976 354.617 135.783 369.977 137.578 373.045C139.373 376.113 138.531 379.486 135.696 380.579ZM144.976 377.626C142.665 376.166 141.714 373.349 142.852 371.333C143.991 369.318 151.892 359.825 154.203 361.284C156.514 362.743 152.36 374.602 151.222 376.618C150.083 378.634 147.287 379.085 144.976 377.626ZM152.52 397.315C149.995 396.45 148.301 393.841 148.737 391.488C149.173 389.134 153.529 377.373 156.054 378.238C158.58 379.103 158.318 392.266 157.882 394.619C157.446 396.973 155.045 398.179 152.52 397.315ZM160.899 413.676C158.381 412.772 156.731 410.144 157.212 407.806C157.694 405.469 162.284 393.824 164.802 394.728C167.319 395.633 166.81 408.744 166.329 411.081C165.847 413.419 163.416 414.58 160.899 413.676ZM171.984 430.882C169.431 430.22 167.53 427.718 167.737 425.296C167.944 422.874 171.109 410.584 173.662 411.247C176.214 411.91 177.187 425.275 176.98 427.697C176.773 430.119 174.536 431.545 171.984 430.882ZM184.693 444.638C182.154 443.853 180.376 441.285 180.72 438.902C181.065 436.519 184.948 424.535 187.487 425.32C190.025 426.104 190.258 439.361 189.913 441.744C189.568 444.127 187.231 445.422 184.693 444.638ZM195.686 455.791C193.245 454.618 191.909 451.878 192.704 449.672C193.499 447.466 199.688 436.735 202.13 437.908C204.572 439.082 202.342 451.715 201.547 453.922C200.752 456.128 198.128 456.965 195.686 455.791Z" fill="#BFEAFF"></path>
            <path d="M225.279 478.359C226.07 478.866 226.405 479.811 226.027 480.47C225.649 481.128 224.702 481.251 223.912 480.744C177.38 450.906 149.508 416.744 140.441 378.325C140.245 377.493 140.778 376.81 141.632 376.797C142.486 376.784 143.338 377.448 143.534 378.279C152.367 415.708 179.567 449.047 225.279 478.359Z" fill="#465197"></path>
            <path d="M413.457 418.85C415.415 418.884 416.964 421.139 416.916 423.887C416.868 426.634 415.026 441.158 413.068 441.123C411.111 441.089 409.777 426.511 409.825 423.763C409.873 421.015 411.5 418.816 413.457 418.85Z" fill="white"></path>
            <path d="M398.76 431.843C400.402 430.778 402.948 431.782 404.446 434.087C405.943 436.391 412.543 449.461 410.901 450.526C409.259 451.592 399.996 440.251 398.498 437.946C397.001 435.642 397.118 432.909 398.76 431.843Z" fill="white"></path>
            <path d="M390.45 445.626C392.121 443.835 395.516 444.284 398.032 446.629C400.548 448.974 412.52 462.845 410.849 464.636C409.178 466.426 394.497 455.459 391.981 453.114C389.464 450.769 388.779 447.416 390.45 445.626Z" fill="white"></path>
            <path d="M385.694 460.586C387.414 458.386 391.316 458.559 394.408 460.973C397.5 463.388 412.48 477.956 410.76 480.157C409.04 482.357 391.27 471.356 388.178 468.942C385.086 466.528 383.974 462.787 385.694 460.586Z" fill="white"></path>
            <path d="M380.164 478.683C381.848 475.991 386.278 475.724 390.061 478.086C393.844 480.448 412.51 495.138 410.827 497.83C409.144 500.522 387.748 490.195 383.966 487.833C380.183 485.471 378.481 481.374 380.164 478.683Z" fill="white"></path>
            <path d="M373.957 499.086C375.226 495.783 380.016 494.549 384.657 496.329C389.298 498.11 412.847 510.215 411.578 513.517C410.31 516.82 384.704 510.069 380.063 508.289C375.422 506.509 372.689 502.388 373.957 499.086Z" fill="white"></path>
            <path d="M427.662 431.843C429.305 432.909 429.422 435.642 427.924 437.946C426.427 440.251 417.164 451.592 415.522 450.526C413.879 449.461 420.479 436.391 421.977 434.087C423.475 431.782 426.02 430.778 427.662 431.843Z" fill="white"></path>
            <path d="M435.973 445.626C437.644 447.416 436.959 450.769 434.442 453.114C431.926 455.459 417.245 466.426 415.574 464.636C413.903 462.845 425.874 448.974 428.391 446.629C430.907 444.284 434.302 443.835 435.973 445.626Z" fill="white"></path>
            <path d="M440.729 460.586C442.449 462.787 441.337 466.528 438.245 468.942C435.153 471.356 417.383 482.357 415.663 480.157C413.943 477.956 428.923 463.388 432.015 460.973C435.107 458.559 439.009 458.386 440.729 460.586Z" fill="white"></path>
            <path d="M446.258 478.683C447.941 481.374 446.239 485.471 442.456 487.833C438.674 490.195 417.278 500.522 415.595 497.83C413.912 495.138 432.579 480.448 436.361 478.086C440.144 475.724 444.575 475.991 446.258 478.683Z" fill="white"></path>
            <path d="M452.466 499.086C453.735 502.388 451.001 506.509 446.36 508.289C441.719 510.069 416.114 516.82 414.845 513.517C413.576 510.215 437.125 498.11 441.766 496.329C446.407 494.549 451.197 495.783 452.466 499.086Z" fill="white"></path>
            <path d="M412.774 446.532C412.774 446.195 413.048 445.921 413.386 445.921C413.723 445.921 413.997 446.195 413.997 446.532V527.519C413.997 527.856 413.723 528.13 413.386 528.13C413.048 528.13 412.774 527.856 412.774 527.519V446.532Z" fill="white"></path>
            <path d="M482.902 455.345C484.188 455.89 484.609 457.796 483.842 459.601C483.076 461.406 477.973 470.522 476.687 469.977C475.4 469.431 478.418 459.43 479.185 457.625C479.951 455.82 481.615 454.799 482.902 455.345Z" fill="white"></path>
            <path d="M469.702 460.015C471.073 459.749 472.489 461.093 472.863 463.018C473.238 464.943 474.108 475.352 472.737 475.619C471.365 475.885 468.271 465.908 467.896 463.983C467.522 462.058 468.33 460.282 469.702 460.015Z" fill="white"></path>
            <path d="M460.518 466.913C462.102 466.175 464.228 467.379 465.266 469.602C466.303 471.826 470.514 484.201 468.929 484.939C467.344 485.677 460.565 474.5 459.528 472.276C458.49 470.053 458.933 467.652 460.518 466.913Z" fill="white"></path>
            <path d="M453.369 475.54C455.096 474.544 457.631 475.701 459.031 478.124C460.431 480.547 466.445 494.187 464.718 495.183C462.991 496.18 454.178 484.155 452.778 481.732C451.378 479.308 451.643 476.536 453.369 475.54Z" fill="white"></path>
            <path d="M444.871 486.036C446.704 484.704 449.707 485.711 451.578 488.284C453.448 490.857 461.869 505.563 460.035 506.894C458.202 508.225 446.809 495.678 444.938 493.105C443.067 490.532 443.037 487.367 444.871 486.036Z" fill="white"></path>
            <path d="M435.307 497.876C437.029 496.03 440.529 496.493 443.123 498.91C445.717 501.328 458.059 515.627 456.336 517.473C454.613 519.319 439.479 508.013 436.885 505.596C434.291 503.178 433.584 499.722 435.307 497.876Z" fill="white"></path>
            <path d="M488.823 467.735C489.625 468.879 488.971 470.718 487.364 471.843C485.757 472.967 476.595 477.996 475.794 476.853C474.992 475.709 482.855 468.825 484.462 467.701C486.069 466.576 488.022 466.591 488.823 467.735Z" fill="white"></path>
            <path d="M490.635 479.073C491.261 480.704 489.911 482.739 487.619 483.619C485.327 484.498 472.681 487.832 472.054 486.201C471.428 484.57 483.058 478.591 485.35 477.712C487.642 476.832 490.008 477.442 490.635 479.073Z" fill="white"></path>
            <path d="M489.779 490.242C490.328 492.157 488.592 494.335 485.9 495.106C483.209 495.877 468.51 498.409 467.961 496.494C467.411 494.578 481.219 488.941 483.91 488.17C486.602 487.399 489.229 488.326 489.779 490.242Z" fill="white"></path>
            <path d="M488.597 503.69C488.991 505.921 486.769 508.177 483.635 508.729C480.501 509.281 463.584 510.398 463.19 508.167C462.797 505.937 479.076 501.204 482.21 500.652C485.344 500.1 488.204 501.46 488.597 503.69Z" fill="white"></path>
            <path d="M487.246 518.847C487.202 521.371 484.292 523.367 480.745 523.305C477.199 523.243 458.453 520.869 458.497 518.345C458.541 515.822 477.358 514.103 480.905 514.165C484.451 514.227 487.291 516.323 487.246 518.847Z" fill="white"></path>
            <path d="M474.922 473.427C475.049 473.114 475.405 472.963 475.718 473.09C476.032 473.216 476.183 473.572 476.056 473.885L454.395 527.464C454.268 527.777 453.912 527.928 453.598 527.802C453.285 527.675 453.134 527.319 453.261 527.006L474.922 473.427Z" fill="white"></path>
            <path d="M482.894 530.961C477.051 521.677 463.72 517.035 442.899 517.035C411.668 517.035 417.24 500.191 384.853 500.191C352.465 500.191 371.925 436.536 293.178 433.169C214.431 429.801 232.258 470.22 207.967 470.22C183.676 470.22 170.615 450.415 140.878 451.813C111.141 453.212 99.1454 497.677 87.1927 500.191C75.2401 502.705 84.1082 491.392 51.3347 491.392C29.4858 491.392 14.063 499.94 5.06637 517.035C-7.46819 526.319 5.54301 530.961 44.1 530.961C58.2949 530.961 97.3913 526.437 140.878 525.179C165.419 524.469 210.224 538 266.574 538C293.178 538 315.976 531.955 367.979 530.961C402.647 530.298 440.952 530.298 482.894 530.961Z" fill="#8FD8FC"></path>
        </svg>