<?xml version="1.0" encoding="UTF-8" standalone="no"?>
<!DOCTYPE svg PUBLIC "-//W3C//DTD SVG 1.1//EN" "http://www.w3.org/Graphics/SVG/1.1/DTD/svg11.dtd">
<svg version="1.1" xmlns="http://www.w3.org/2000/svg" xmlns:xlink="http://www.w3.org/1999/xlink" preserveAspectRatio="xMidYMid meet" viewBox="0 0 640 640" width="640" height="640"><defs><path d="M24.48 425.16L62.03 425.16L341.74 104.93L320 78.24L24.48 425.16Z" id="c4arEJogpk"></path><path d="M413.9 196.85L219.19 425.16L183.11 425.16L393.14 172.14L413.9 196.85Z" id="aFajMRDsM"></path><path d="M456.4 247.75L303.2 425.16L259.71 425.16L436.63 223.53L456.4 247.75Z" id="chVlv1PR7"></path><path d="M373.37 342.14L456.4 425.16L413.9 425.16L353.6 366.85L373.37 342.14Z" id="f1pDWyxjjS"></path><path d="M456.4 247.26L597.73 425.16L556.22 425.16L434.65 273.94L456.4 247.26Z" id="csR0FNa5P"></path><path d="M192.5 270.98L280.47 311.5L304.19 291.73L212.27 247.26L192.5 270.98Z" id="cztomEns"></path></defs><g><g><g><use xlink:href="#c4arEJogpk" opacity="1" fill="#04b8b8" fill-opacity="1"></use><g><use xlink:href="#c4arEJogpk" opacity="1" fill-opacity="0" stroke="#04b8b8" stroke-width="1" stroke-opacity="1"></use></g></g><g><use xlink:href="#aFajMRDsM" opacity="1" fill="#04b8b8" fill-opacity="1"></use><g><use xlink:href="#aFajMRDsM" opacity="1" fill-opacity="0" stroke="#04b8b8" stroke-width="1" stroke-opacity="1"></use></g></g><g><use xlink:href="#chVlv1PR7" opacity="1" fill="#04b8b8" fill-opacity="1"></use><g><use xlink:href="#chVlv1PR7" opacity="1" fill-opacity="0" stroke="#04b8b8" stroke-width="1" stroke-opacity="1"></use></g></g><g><use xlink:href="#f1pDWyxjjS" opacity="1" fill="#04b8b8" fill-opacity="1"></use><g><use xlink:href="#f1pDWyxjjS" opacity="1" fill-opacity="0" stroke="#04b8b8" stroke-width="1" stroke-opacity="1"></use></g></g><g><use xlink:href="#csR0FNa5P" opacity="1" fill="#04b8b8" fill-opacity="1"></use><g><use xlink:href="#csR0FNa5P" opacity="1" fill-opacity="0" stroke="#04b8b8" stroke-width="1" stroke-opacity="1"></use></g></g><g><use xlink:href="#cztomEns" opacity="1" fill="#04b8b8" fill-opacity="1"></use><g><use xlink:href="#cztomEns" opacity="1" fill-opacity="0" stroke="#04b8b8" stroke-width="1" stroke-opacity="1"></use></g></g></g></g></svg>