<?xml version="1.0" standalone="no"?><svg xmlns:xlink="http://www.w3.org/1999/xlink" xmlns="http://www.w3.org/2000/svg" viewBox="0 0 1000 1333.3333333333333" preserveAspectRatio="xMaxYMax slice"><g transform="scale(2.19514872132587)"><rect x="0" y="0" width="455.54999999999995" height="607.4" fill="#ffffff"/><path d="M 75.93 75.93 A 75.93 75.93 0 0 0 151.86 0 L 75.93 0" fill="#ffde91"/><path d="M 151.85 0 A 75.93 75.93 0 0 0 227.78 75.93 L 227.78 0" fill="#979efb"/><rect x="227.77" y="0" width="75.93" height="75.93" fill="#fffefd"/><path d="M 379.63 0 A 75.93 75.93 0 0 0 455.56 75.93 L 455.56 0" fill="#ffefc9"/><rect x="0" y="75.93" width="75.93" height="75.93" fill="#daddfd"/><path d="M 75.93 75.93 A 75.93 75.93 0 0 1 151.86 151.86 L 75.93 151.86" fill="#7e86fa"/><rect x="151.85" y="75.93" width="75.93" height="75.93" fill="#f7f8ff"/><polygon points="227.77,75.93 303.70000000000005,75.93 227.77,151.86" fill="#5b65f8"/><rect x="379.63" y="75.93" width="75.93" height="75.93" fill="#c1c5fc"/><rect x="0" y="151.85" width="75.93" height="75.93" fill="#a2a8fb"/><polygon points="151.86,151.85 151.86,227.78 75.93,227.78" fill="#ffda83"/><path d="M 227.77 227.78 A 75.93 75.93 0 0 1  303.70000000000005 151.85 L 227.77 227.78 A 75.93 75.93 0 0 0 303.70000000000005 151.85" fill="#ffd268"/><polygon points="379.63,151.85 455.56,151.85 455.56,227.78" fill="#9da4fb"/><path d="M 0 303.70000000000005 A 75.93 75.93 0 0 0 75.93 227.77 L 0 227.77" fill="#e3e5fe"/><rect x="75.93" y="227.77" width="75.93" height="75.93" fill="#ffd471"/><rect x="151.85" y="227.77" width="75.93" height="75.93" fill="#c7cafd"/><polygon points="227.77,227.77 303.70000000000005,227.77 227.77,303.70000000000005" fill="#969dfb"/><rect x="303.7" y="227.77" width="75.93" height="75.93" fill="#ffde90"/><polygon points="0,303.7 75.93,303.7 75.93,379.63" fill="#ffd063"/><polygon points="303.7,303.7 379.63,303.7 303.7,379.63" fill="#646ff9"/><polygon points="75.93,379.63 151.86,379.63 151.86,455.56" fill="#868efa"/><polygon points="379.63,379.63 455.56,455.56 379.63,455.56" fill="#ffda85"/><path d="M 0 531.48 A 75.93 75.93 0 0 0 75.93 455.55 L 0 455.55" fill="#ffcb53"/><rect x="151.85" y="455.55" width="75.93" height="75.93" fill="#ffe19c"/><rect x="379.63" y="455.55" width="75.93" height="75.93" fill="#a7adfb"/><rect x="75.93" y="531.48" width="75.93" height="75.93" fill="#abb0fc"/><path d="M 151.85 607.4100000000001 A 75.93 75.93 0 0 1  227.78 531.48 L 151.85 607.4100000000001 A 75.93 75.93 0 0 0 227.78 531.48" fill="#6770f9"/><path d="M 303.7 607.4100000000001 A 75.93 75.93 0 0 0 379.63 531.48 L 303.7 531.48" fill="#ffecc0"/><polygon points="379.63,531.48 455.56,531.48 379.63,607.4100000000001" fill="#ffd87d"/></g></svg>